/* XPM */
static char *_8cbad596b7444daa0602c434edc4577[] = {
/* columns rows colors chars-per-pixel */
"48 48 17 1 ",
"  c #A37D3E",
". c #BA924C",
"X c #9B6627",
"o c #7F6158",
"O c #CBAD5F",
"+ c #8D796D",
"@ c #85492C",
"# c #604E42",
"$ c #4D3A31",
"% c #BDAD96",
"& c #AA917B",
"* c #412B0F",
"= c #8C8417",
"- c #AD9C1C",
"; c #4C5E1C",
": c #B03114",
"> c #D96725",
/* pixels */
" ..                     ..    X              . o",
". . O  X   .        . ..X.O ..O   .   . OOO  ..+",
".  OO@XXXXO.. .    ..X.OXX   OO. ..X ..  O..  .#",
"  ..O  @XXOO .O O  .  XOX .O  XO. OO .   X..   o",
"  ..  OOOXOX@OXO.. O..    ..OXXXO@XO   OO.     +",
"     ..O XX@$$$O  XOO ...O @O@$$$$@XX  X..   O o",
"  O  .. OOO$###@@XXOX  .OOX$#o#o#$$OOO  XO.  .O#",
"  .O   ..O$#o#$#@X@@XXXXXOX$$#o#oo$$O.. O. ..X.o",
"..X.      #o#$#o@@@$$##$#o##$%&+#o#$       X.  +",
"X.  .  .O oo##o+$$#o$&+#o+o##&o&%#oo O. .      +",
"   ... ..O$o$%&o##o##+#o#%&#oooo&++$O.. ..  . Xo",
"    OO $#Oooo&+##oooo#&%o&****#oo+ooOo$ OOX.OX #",
"    XO$#&o++o####o+++o+&+o****$#+$$#ooo$OX@XXO o",
"   XX$#++++++oooooo++ooo**====***$#o#+oo$@XX .Oo",
"  X.X#oo%&+o+&++ooooo##*===------**#$&+ooO.   .+",
"  ..o.Xo&++o+o+++oo###o*===------**#$$#X XO.   +",
"      X$$#o++++ooo+oo###***---;;---*##$#X..    +",
".  .O @@$#+oo+o+o++++++o#o*;;-**===*oOOO    ..Xo",
". .OOO@$#+o#ooo#ooo++++&o#*;;-**===*o#O..    ..o",
"    XO$$##o##oooo++o+++&**;;;*+o***o+       X. o",
"  .XX$##$###$oo+++ooo#o*::;**oooooo+XOOO. OO.  o",
" ..O$#+#o$#$$#oo+ooooo#*::;**#oo#$#X@XO.   ..  o",
"  OOO#o$o##oo+o##o##***>>>:***oooo++o$X X  XO. o",
"   X$$#o#oo++ooooo**:>>>:::***oo+++%&o@X . O.X o",
"  X@$#$oooo+++o+o+**:>>>:::***++&++%%+$@O..    +",
"X@OOO$#oo+o+o+++o*::>>>::::**+++oo+++o$OOO XX  +",
" ..OX$#+%&ooo+o**:>>>:::::***+oo$$oo&&oO XXX   o",
" .. X#+&ooo###o**:>>>:::::***oo###$o&+#XXXOOO  #",
"     X&%###$$oo**>>>>:::***$$#o#oo#++#$$@XXO.. #",
"  XOOO#ooo###o*::>:::::****##ooooooo+%&$OOO .  o",
"  ..O@$##ooooo*::>:::::****ooo++++o#o&+#$O..   +",
"   .  @$o+oo+o*::::::*****#oo++++oo$#o#@  . .. +",
".. .. .$##$#o+**********#oooooo+++o#$$$. .. X..+",
".X   ..O$o+&o+**********ooo+o+oo+o#$o#O..    X o",
"X  .. OOO#&%$o*******OOo+++++o##o#&+#OOO .. .. +",
".. .OO@@#o$$#ooo+++o#OOO#o++++o#o#%&o$@@OO.XX  o",
" XXXX@$$##$#o+&o+OOO. O. OO+ooo%&o##o+$$@XXO   o",
"    XX@OOO#o#o+oo#O.. ..O.X  OO&++o$OOO@XXO.@X o",
" OOO .O.O$$#o# O X ..  ..X@ O.#O#o#$$O.O. .. @Xo",
"..O  ..O OO  O..O X         .  .O  OO O..   O Xo",
"..X    OX@.O .O .          O   .. O.@XO     OO o",
"  .OO   @@..  .        O  O.      .. X  OOOX.. #",
"  ..X .OO        OOO XO.  .X..           O.. . o",
" .OX  ..OO        O.. .X..  .X    ..     X.    #",
". .O .OX    O     X.    .X    . ..X.O     X .  #",
".    ..O    .O  ...   .      ..X.OXX    OO. .. o",
" ..   XO  ..X.  X.. ..       .  XOX      ..  . +",
" .        X.     X  . .                   X    +"
};
