/* XPM */
static char *ec7b5f448f8a4c89bf73002fcffdca59[] = {
/* columns rows colors chars-per-pixel */
"48 48 18 1 ",
"  c #A37D3E",
". c #BA924C",
"X c #9B6627",
"o c #7F6158",
"O c #CBAD5F",
"+ c #8D796D",
"@ c #85492C",
"# c #47191B",
"$ c #604E42",
"% c #E8C8B3",
"& c #4D3A31",
"* c #B37E6D",
"= c #BDAD96",
"- c #AA917B",
"; c #B03114",
": c #D96725",
"> c #B03013",
", c #D98993",
/* pixels */
" ..                     ..    X              . o",
". . O  X   .        . ..X.O ..O   .   . OOO  ..+",
".  OO@XXXXO.. .    ..X.###   OO. ..X ..  O..  .$",
"  ..O  @XXOO .O O######%%%#O  XO. OO .   X..   o",
"  ..  OOOXOX@OXO.######%%%#.OXXXO@XO   OO.     +",
"     ..O XX@&&&O#%**%*%***%#O@&&&&@XX  X..   O o",
"  O  .. OOO&$$$#%%***%****%#$o$o$&&OOO  XO.  .O$",
"  .O   ..O&$o$&#%%***%****%#&$o$oo&&O.. O. ..X.o",
"..X.      $o$&$#%%%%**%#***#&=-+$o$&       X.  +",
"X.  .  .O oo$$o+####%*%##**#$-o-=$oo O. .      +",
"   ... ..O&o&=-o####%*%##**#oooo-++&O.. ..  . Xo",
"    OO &$Oooo-+$$oo##%%%#**###$oo+ooOo& OOX.OX $",
"    XO&$-o++o$$$$o#;;;%%;;;;;;#$+&&$ooo&OX@XXO o",
"   XX&$++++++ooooo#;;;%%;;;;;;#oo&$o$+oo&@XX .Oo",
"  X.X$oo=-+o+-++o#;;:::;;;::::;#ooo$&-+ooO.   .+",
"  ..o.Xo-++o+o++#;;;:::::%%:::;#+oo$&&$X XO.   +",
"      X&&$o++++o#;;;:::::%%:::;#+o+o$$&$X..    +",
".  .O @@&$+oo+o+#;;:::::*%%*::;#++++oOOO    ..Xo",
". .OOO@&$+o$ooo$#::::::*%#%%#;;#o+++o$O..    ..o",
"    XO&&$$o$$ooo#::::::*%#%%#;;#o++o+       X. o",
"  .XX&$$&$$$&oo#:::;:*%%#%%#%;>#ooo+XOOO. OO.  o",
" ..O&$+$o&$&&$#::::;:%%%#%%#%;::$&$X@XO.   ..  o",
"  OOO$o&o$$oo+#::::;:%%%#%%#%;::oo++o&X X  XO. o",
"   X&&$o$oo++o#::::;::,,%%;%,>::#++=-o@X . O.X o",
"  X@&$&oooo+++#:::;;;:,,%%%%,>>:#++==+&@O..    +",
"X@OOO&$oo+o+o+#:::;;;:,,%%%%,>>:#o+++o&OOO XX  +",
" ..OX&$+=-ooo+o##;;;;;;%%%%*;#>>#&oo--oO XXX   o",
" .. X$+-ooo$$$o$$###******;;####$$&o-+$XXXOOO  $",
"     X-=$$$&&oooo###******;;####oo$++$&&@XXO.. $",
"  XOOO$ooo$$$oo###%%*#####**###ooooo+=-&OOO .  o",
"  ..O@&$$ooooo#%%%%*#######*%%%#++o$o-+$&O..   +",
"   .  @&o+oo+o#%%%%*#######*%%%#+oo&$o$@  . .. +",
".. .. .&$$&$o+#%%%%########*%%%#++o$&&&. .. X..+",
".X   ..O&o+-o+#**%##########%**#+o$&o$O..    X o",
"X  .. OOO$-=&o#**%##########%**#o$-+$OOO .. .. +",
".. .OO@@$o&&$oo################$o$=-o&@@OO.XX  o",
" XXXX@&&$$&$o+-o+O###########oo=-o$$o+&&@XXO   o",
"    XX@OOO$o$o+oo$###########OO-++o&OOO@XXO.@X o",
" OOO .O.O&&$o$ O X###########.$O$o$&&O.O. .. @Xo",
"..O  ..O OO  O..O##;;######### .O  OO O..   O Xo",
"..X    OX@.O .O .##;;######### .. O.@XO     OO o",
"  .OO   @@..  .  #;;;#####;;;#    .. X  OOOX.. $",
"  ..X .OO      #%%%;;#O. #;%%%#          O.. . o",
" .OX  ..OO     #%%%;;#.X.#;%%%#   ..     X.    $",
". .O .OX    O  #%%%%%#  .#%%%%# ..X.O     X .  $",
".    ..O    .O #%%%%%#.  #%%%%#X.OXX    OO. .. o",
" ..   XO  ..X.  X.. ..       .  XOX      ..  . +",
" .        X.     X  . .                   X    +"
};
