/* XPM */
static char *_1d9bd8ff1194ba8ae64dd04376cc0f1[] = {
/* columns rows colors chars-per-pixel */
"48 48 29 1 ",
"  c #A37D3E",
". c #BA924C",
"X c #9B6627",
"o c #7F6158",
"O c #CBAD5F",
"+ c #8D796D",
"@ c #85492C",
"# c #604E42",
"$ c #4D3A31",
"% c #BDAD96",
"& c #AA917B",
"* c #51534F",
"= c #68675D",
"- c #B8B1A5",
"; c #918B7F",
": c #433E3C",
"> c #E4E0D3",
", c #972C1E",
"< c #5A4337",
"1 c #F7A763",
"2 c #681F1F",
"3 c #F37643",
"4 c #CD4B3A",
"5 c #B74D1B",
"6 c #802E15",
"7 c #F7D15E",
"8 c #DC6B30",
"9 c #EE9A31",
"0 c #734422",
/* pixels */
" ..                     ..    X              . o",
". . O  X   .        . ..X.O ..O   .   . OOO  ..+",
".  OO@XXXXO.. .    ..X.OXX   OO. ..X ..  O..  .#",
"  ..O  @XXOO .O O  .  XOX .O  XO. OO .   X..   o",
"  ..  OOOXOX@OXO.. O..    ..OXXXO@XO   OO.     +",
"     ..O XX@$$$O  XOO ...O @O@$$$$@XX  X..   O o",
"  O  .. OOO$###@@XXOX  .OOX$#o#o#$$OOO  XO.  .O#",
"  .O   ..O$#o#$#@X@@XXXXXOX$$#o#oo$$O.. O. ..X.o",
"..X.      #o#$#o@@@$$##$#o##$%&+#o#$       X.  +",
"X.  .  .O oo##o+$$#o$&+#o+o##&o&%#oo O. .      +",
"   ... ..O$o$%&o##o##+#o#%&#oooo&++$O.. ..  . Xo",
"    OO $#Oooo&+##oooo#&%o*****#oo+ooOo$ OOX.OX #",
"    XO$#&o++o####o+++o***=--;==*::$#ooo$OX@XXO o",
"   XX$#++++++oooooo++:*=;->>>-;==*:o#+oo$@XX .Oo",
"  X.X#oo%&+o+&++oooo:*=->>>>>>-;==*:$&+ooO.   .+",
"  ..o.Xo&++o+o+++oo::=->>>>>>>>-;;=:$$#X XO.   +",
"      X$$#o++++ooo+:*->>>>>>>>----;=:#$#X..    +",
".  .O @@$#+oo+o+o+:*=->>>>>>----->-=:OOO    ..Xo",
". .OOO@$#+o#ooo#oo:*=--->>>----;->-;*:O..    ..o",
"    XO$$##o##oooo+:===-----;--;->-;;;*:     X. o",
"  .XX$##$###$oo++=*=;;=----;-=->-;;;==:O. OO.  o",
" ..O$#+#o$#$$#oo=>-=>>-=---;=;--;;;;==*:   ..  o",
"  OOO#o$o##oo+o=>--=->>-;--=;--;;;;====:X  XO. o",
"   X$$#o#oo++oo=--;*--->-;;=;-;;;;=*==*: . O.X o",
"  X@$#$oooo+++o*;;=*;-----;;=;;;;;*==**::..    +",
"X@OOO$#oo+o+o++*;;=:;;-----;;=;;;=;=**:*:O XX  +",
" ..OX$#+%&ooo+o*;==:;;;---;;;=;;=;=**:**:XXX   o",
" .. X#+&ooo# X*:;==:;;;;-;;;;===;=*::*=*:X  O  #",
"     X&%###$ *=:;==:=;;;-;;=;==*;=,::*,,:<X .. #",
"  XOOO#ooo##X;=:;=*:*==;;;;*===*==,,*,12::< .  o",
"  ..O@$##ooo<=;:==;=:**=;;=*==**=*21,112,,,X   +",
"   .  @$o+oo<*=:*>-;=::**==*=*****23131,32,X.. +",
".. .. .$##$#<:*:*>-;;=*::****=;;;,,43,43422<X..+",
".X   ..O$o+&X:::*->-;;;=**=*;;---,134222,22< X o",
"X  .. OOO#&%X<:.*-;;;==*==;-----552,25,312:<.. +",
".. .OO@@#o$$ X. *;55==**;---->-,675255434,2XX  o",
" XXXX@$$##$#  X 5585**:;-->>>-;5677576,4431,   o",
"    XX@OOO#oOOO579,,**:;;;---;695797964,34,,@X o",
" OOO .O.O$$#XO5798,4,,:;;;;;;=6898598553132  @Xo",
"..O  ..O OO  X57792431,=0;;;==5855889751,12 O Xo",
"..X    OX@.O O556623431,0;;;=**65898561,O,, OO o",
"  .OO   @@..   X..X2311,**===**665976,,X..  .. #",
"  ..X .OO       .   22,,::***:: 6665 X.      . o",
" .OX  ..OO        O.. .X..  .X    ..     X.    #",
". .O .OX    O     X.    .X    . ..X.O     X .  #",
".    ..O    .O  ...   .      ..X.OXX    OO. .. o",
" ..   XO  ..X.  X.. ..       .  XOX      ..  . +",
" .        X.     X  . .                   X    +"
};
