/* XPM */
static char *_e0c32849e444f0e9edacff0e3f1ff1d[] = {
/* columns rows colors chars-per-pixel */
"48 48 240 2 ",
"   c #1E3E2F",
".  c #292229",
"X  c #2A2C2B",
"o  c #27292B",
"O  c #342A2C",
"+  c #392F2E",
"@  c #30272B",
"#  c #2B3A2E",
"$  c #29352D",
"%  c #3C322F",
"&  c #343A2D",
"*  c #2C2535",
"=  c #382D34",
"-  c #2A3332",
";  c #2B3B32",
":  c #283B37",
">  c #3E3330",
",  c #353B33",
"<  c #463A32",
"1  c #4D3B31",
"2  c #433635",
"3  c #48382C",
"4  c #1C4B34",
"5  c #184732",
"6  c #1C5534",
"7  c #145B36",
"8  c #185736",
"9  c #29412E",
"0  c #37452D",
"q  c #35552E",
"w  c #2A4432",
"e  c #234C33",
"r  c #294A32",
"t  c #244633",
"y  c #374833",
"u  c #265933",
"i  c #3A5832",
"p  c #2C572F",
"a  c #0A6D39",
"s  c #0D6438",
"d  c #136337",
"f  c #196A37",
"g  c #0C7239",
"h  c #147A39",
"j  c #1B7B38",
"k  c #167538",
"l  c #3A652E",
"z  c #2A6435",
"x  c #266935",
"c  c #2A7435",
"v  c #257836",
"b  c #367634",
"n  c #356B31",
"m  c #4D4234",
"M  c #454836",
"N  c #5A4C33",
"B  c #544736",
"V  c #435532",
"C  c #495833",
"Z  c #5E5133",
"A  c #575837",
"S  c #53472C",
"D  c #625432",
"F  c #695B34",
"G  c #755C37",
"H  c #596A2C",
"J  c #4C6332",
"K  c #466734",
"L  c #546B33",
"P  c #586737",
"I  c #587635",
"U  c #477230",
"Y  c #69792B",
"T  c #696936",
"R  c #766538",
"E  c #687637",
"W  c #767438",
"Q  c #6F682D",
"!  c #2B3548",
"~  c #302953",
"^  c #322C5B",
"/  c #2E2F4F",
"(  c #373264",
")  c #352D60",
"_  c #463A55",
"`  c #463E7B",
"'  c #433B75",
"]  c #403868",
"[  c #125C41",
"{  c #194D41",
"}  c #2E494D",
"|  c #377943",
" . c #3C4261",
".. c #5E4E41",
"X. c #574C45",
"o. c #5E5346",
"O. c #4B4D47",
"+. c #604E42",
"@. c #654E4A",
"#. c #645447",
"$. c #775D54",
"%. c #507947",
"&. c #6D6448",
"*. c #786749",
"=. c #797A44",
"-. c #7C6156",
";. c #7F6158",
":. c #766855",
">. c #717052",
",. c #47407E",
"<. c #414F6D",
"1. c #84492C",
"2. c #905F27",
"3. c #9B6627",
"4. c #956628",
"5. c #976928",
"6. c #816E3A",
"7. c #88793C",
"8. c #947A3C",
"9. c #9D7C3D",
"0. c #94763C",
"q. c #8E6A28",
"w. c #A37D3E",
"e. c #817A5C",
"r. c #87734A",
"t. c #8C796C",
"y. c #867666",
"u. c #1A8339",
"i. c #1D8A39",
"p. c #1B8436",
"a. c #3B852D",
"s. c #3A9B2D",
"d. c #268937",
"f. c #358534",
"g. c #2D9D34",
"h. c #249439",
"j. c #2A943A",
"k. c #279939",
"l. c #2A9C39",
"z. c #279435",
"x. c #359D35",
"c. c #2D9A2F",
"v. c #39A62D",
"b. c #3FB12D",
"n. c #2EA136",
"m. c #36A833",
"M. c #3CB131",
"N. c #46852B",
"B. c #479A29",
"V. c #5A9A2C",
"C. c #568635",
"Z. c #499738",
"A. c #478B35",
"S. c #78892E",
"D. c #6A8A36",
"F. c #778637",
"G. c #6E952E",
"H. c #4AA72A",
"J. c #45BB2D",
"K. c #46B72D",
"L. c #55BA27",
"P. c #46A938",
"I. c #46B434",
"U. c #56B835",
"Y. c #59AA2C",
"T. c #67AA37",
"R. c #67B837",
"E. c #74B131",
"W. c #4CC32B",
"Q. c #56CE26",
"!. c #5AC62A",
"~. c #5DD325",
"^. c #5FC031",
"/. c #67CD2B",
"(. c #63DD21",
"). c #68D727",
"_. c #76D92B",
"`. c #6AC335",
"'. c #78CA36",
"]. c #7AD431",
"[. c #71E224",
"{. c #3A8748",
"}. c #5A8D55",
"|. c #698547",
" X c #7A8441",
".X c #53A740",
"XX c #8A8638",
"oX c #9A833B",
"OX c #8C9B34",
"+X c #A7863E",
"@X c #AA973C",
"#X c #98B836",
"$X c #8DAD36",
"%X c #AFB234",
"&X c #86CC38",
"*X c #8BD437",
"=X c #96D737",
"-X c #92CB31",
";X c #A8C637",
":X c #A5DA35",
">X c #BBD43C",
",X c #BACA39",
"<X c #87E629",
"1X c #97E92D",
"2X c #9BE132",
"3X c #A3EF2E",
"4X c #ABE636",
"5X c #BAEA37",
"6X c #BCF433",
"7X c #B4F232",
"8X c #ACF12F",
"9X c #C8D83A",
"0X c #C9EA37",
"qX c #C6F934",
"wX c #C9F737",
"eX c #DCFE39",
"rX c #D2F939",
"tX c #878541",
"yX c #978747",
"uX c #8E8C53",
"iX c #A58946",
"pX c #AD9147",
"aX c #BA924C",
"sX c #B6914B",
"dX c #B09752",
"fX c #B8A359",
"gX c #B8A84B",
"hX c #988C67",
"jX c #A9917A",
"kX c #A18A75",
"lX c #9FBA5F",
"zX c #CBAD5F",
"xX c #C5AA5D",
"cX c #C4B047",
"vX c #BDC44A",
"bX c #CFCD4B",
"nX c #DFEF55",
"mX c #494282",
"MX c #BAAB93",
"NX c #A59C83",
/* pixels */
"w.aXaXw.w.w.w.w.w.w.w.D.u.6 w w d e w s k.l.r 9.aXaXw.w.w.w.3.w.w.w.w.w.w.w.w.w.w.w.w.w.w.aXw.;.",
"aXw.aXw.zXw.w.3.w.9.D.&XeX1Xx.=X<XM.l.~.j h.g r 4.aXzXw.aXaXzXw.w.w.aXw.w.w.aXw.zXzXzXw.w.aXaXt.",
"aXw.w.zXzX1.3.4.q.H T.rX1XK.=XeXrXR.).6XU.r d.k.. 2.w.w.w.zXzXaXw.aXaX3.w.aXaXw.w.zXaXaXw.w.aX+.",
"w.w.aXaXzX9.8.A k c a.W.P.x.&X0XU.4XwX/.5Xi t s r X iXzXw.w.3.zXaXw.zXzXw.aXw.w.w.3.aXaXw.w.w.;.",
"w.w.aXaX9.E k v e 6 x &XeXR.i.x v =XP.u d.a g w h.s # yXzX3.3.3.zX1.3.zXw.w.w.zXzXaXw.w.w.w.w.t.",
"w.w.w.9.E f U f.p t c *XrX1Xv.p.h g.d.k.i.p.l.e d } [ d dX1.1 1 1 1 1.3.3.w.w.3.aXaXw.@X+XzXw.;.",
"w.w.zX8.7 C.rX2XK.d B.<X3X6X'.).W._.<Xm._.<Xn.d e <.( 8 ; @.+.;.+.1 1 zXzXzXw.w.3.zXcX9X+XaXzX+.",
"w.w.aXfXz Z.=X`.^.i.v.!.3X5X1XqX<X6XeXZ.=XeXf.# z.j.,.! { = ;.+.;.;.1 D bXcXaXw.zXcX5XgXaX3.aX;.",
"aXaX4.|.c b *XwX'.n.x a.].`.'.=X/.7X4Xi c =Xr . W.j. .w / ] y.t.+.;.+.W 5X,X%X+Xw.9X-X5.aXw.w.t.",
"3.aX8.7 b *XwX'.W.b.8 z h.^.].x.m.1XI.r $ u.6 Y `.j.w } : ~ 2 jXMX..;.;.OX4X8X,XgX:X@Xw.w.w.w.t.",
"w.w.I c U.*X'.!.1X`.6 e f $X4XA.v.W.b #   s c.3XeXc u %.- ! = @.jXt.hXS.gX#XR.<X>X`.XXw.aXw.3.r.",
"w.9.g m.).`.I.7XqX'.v 5 # C.Z.r v v # 4 j T.1X(.&Xw p.N.o 4 . 2 ;.hX;X_.`.=.z m.4XP.G.bXbX3.w.+.",
"9.T a f.8X6X!.*X`.J.z.s.l e 9   k c N.v.l.1XeXJ.c B.I.! . : * = t.XX;XC.Z.Y.%.d.].L.K.%X%XbX+Xr.",
"9.y 6 z $X5X!.2XR.d.c.(.b.v # 8 c.n.M.1X=X(.'.u.w J.!.~ $ z ! _ r.F =.;.n n.|.| W.W.D.4.w.cXzX;.",
"oXw w 6 i '.4XqX_.U.=X].J.M.u 7 '.=XP.5XeX[.n.b.B.x v.y B.H.: O.r.;.r.+.y {.{.j g.d.E.E.,X+XaXt.",
"0.X r v 7 C.eX4Xs.E.6XV.f.b 6 j :XeX_.<XrXs.=X7X(.w p f.(.L.X B t.-.o.P A z i.x f v.K.g.R.>XOXt.",
"7.. f J.a f.T.L u i L 0 9 6 k k./.qXP.Q.D.g <XeXn X X g.J.L.! A t.*.S.>X-Xs.k.u 7 g.i.4 e 0XoXt.",
"iXo j 6X=XW.h.f v d.B.v f s R.4XU.U.j n d i.m.I X X Y.W.j.l - #.t.uX:X<X!.h.h 4 v k.h i V F.5.;.",
"iXi j eXqX(.J.n.J.R.6X'.u.7 #X3X).Q.g.K.k.u u d . <.M.!.r X & y.-.OX#Xq c h.8 8 d.u.4 C G.L 7.;.",
"8.K j rX<XqX8X_.qX3X[.W.u.6 Y.[.8XqX_.(.m.d.L.e ~ ( <.q . . % -.:.C C V y c u 8 g 4 i ;X0X0XL -.",
"9.K k ).U.eX6X<X6X[.H.f u.K.U f.4XeXU.4XwX).qX!.d.* * ^ ] . 2 $.&.L L b j.z 6 4 : c L.I.wXJ J -.",
"w.OXI p P.qX~.`.:Xf.6 a R.rXD.X #XR.} >X<Xm.rX(.r . * mX' . #.$.E 4X).K.l.j.u - c h g k.).M 8.;.",
"w.+XF.C l !.d z f.6 h k.&X1X}.( | } : !.p.a n.^ . ,.' * ~ m $.*.4XW.n.i.a a 4 - 7 i.Q.m.r tX9.;.",
"w.w.0.0 . 9 k.M.(.W.u.u.J.N.! ' ( ' mXmX) ,.^ mXmX^ ` . - $.-.=.P - z l.u.a 4 8 a i.Q.(.m.K 8.;.",
"w.w.3.G 0 . 9 M.W.K.(.v.a a } ^ [ ! ` mX) ` mX^ mX~ . . o.t.t.y.hXP y - - 8 u.k.k.Q.(.qXd.k.K t.",
"4.1.zXxX=.0 . X z M.K.c c l.h i.l.} [ e / ~ ` . ` . . O.$.t.t.t.;.*.G.y - - - - H.~.(.qXP.l.).t.",
"w.sXsXzX4.M - - t 5 X w x k.k u.k.h h.l.r ; . . . ~ , $.y.t.;.;.1 C a.k.u.4 - 7 4 ; ;X0XV L.0X-.",
"w.aXaXw.3.+.:., & . . . 5 s   X v k h.d.r . . - y , ......-.;...T V.J.i.g a 4 c p.h.p - J , ; y ",
"w.w.w.w.9.3.jXNXM - - - X # X . 5 t c $ . X - y X.$.+.1 1 +.;.A G./.P.g.d.k e c /.K.).C G.XX0...",
"w.w.3.zXxXfX..-.-.#.A M M M , . . . . - - O.:.$.-...-.+.+.;.;.-.*.0X-XN.0 , P C OX<XvX9.yXw.w.;.",
"w.w.aXaXzX1.1 +.+.-.-.-.-.$.kX:.e.:.#.:.y.kXMX-.Z +.+.;.;.;.t.t.uX$Xq J I U C.I y gXaXaXw.w.w.t.",
"w.w.w.aXw.w.1.1 -.>.&.&.e.*.y.t.;.t.-.t.y.:.&.A A ..+.;.;.t.t.uX-X~.H.U U f.J.S.7.w.aXw.aXaXw.t.",
"aXaXw.aXaXw.aXm E OXY A E T R r.*.r.r.R F E P m m &.-.;.;.;.;.t.L H.n.k k j m aXw.aXaXw.3.aXaXt.",
"aX3.w.w.w.aXW B T R Q D A Z D D D F 6.7.7.6.6.F N A =.t.;.t.;.:.P l f.6 6 K zXaXpX8.7.L Y Q 8.o.",
"3.w.w.aXaX0.W N F Q F D B m < > > N D D G R *.6.6.Z P >.t.-...A E OXE.Z.z K iXyXI J V.V.-X$X$Xw ",
"aXaXw.aXxXyXS D D F N < % % @ . . O % % N Z Z D R 6.Z A e.t.-...&.;XqX_.f.b U E V.A.I.J.1XeX#X$ ",
"w.3.3.3.2.1 < D Z m % O @ % % % . . + % 1 N Z D D G Z D F -.;.MXhXY E.Q.g.u.T.;XR.h.u.k.~.G.J . ",
"w.w.w.0.N < D N < O O > % + + + . . O + + + 1 3 N D m Z Z r.xXjXt.=.l B.n.f #XnX|.4 s h.a.i J r ",
"w.xXfX*.1 B F < O O % + @ . . . . . % > . . O > + N D B Q T ..zX+.P V l T.-XE.}.y - 7 u J A q.-.",
"aXsX=.C B D B 2 . + > . . . . . . . O O > 2 . O N D N D Q XXw.aXfXJ V U =XnX|.G.#Xb j w  X9.3.r.",
"aXaX4.S.C 3 < O . . @ . . . . . . . . . O O 2 . N Q F E H oXw.aXtXV l H.P.%.%.lXnXZ.h.H.P dX9.;.",
"w.w.aXxXtXY < . . . . . . . . . . . . . . . O < O N Q L 7.w.w.9.J N.!.b.g k j.{..Xl.k.m.H.C E B ",
"w.w.aXaX4.F.C % . . . . . . . . . . . . . . . m < B XXq.sXaXw.W L D.qX<Xm.x r t v W.Q.Q.7Xy J . ",
"w.aXzX3.w.9.W C J C . & & . . . . . . . . P X 3 7.iX9.w.aX3.XXL P F.#XV r C J C y q q :XeX9XL ~ ",
"aXw.aXzXw.aXzX4.7.E A J 0 . . H M . Y D 6.8.0.9.sX3.w.w.w.w.pXS.V , V T fX9.9.8.T P , y V 0XL ` ",
"aXw.w.w.w.aXaXzXw.w.9.8.yXT L XXiXpXpX9.w.w.sX9.8.w.w.w.w.aXaXq.XXS.H 5.w.w.w.w.zXxXiXT ; y G.* ",
"w.aXaXw.9.w.3.zXw.w.aXaX3.aX9.w.3.aXaXw.aXaXw.w.w.w.w.w.w.aXw.w.3.xX4.w.w.w.w.w.w.aXaX9.0.yXD.. ",
"w.aXw.w.w.w.w.w.w.w.3.aXw.w.w.w.w.3.w.w.aXw.aXw.w.w.w.w.9.8.7.0.9.w.w.w.w.w.9.0.w.w.3.w.w.w.9.t."
};
