/* XPM */
static char *_797328aa262407e8ae99a2824c3b93d[] = {
/* columns rows colors chars-per-pixel */
"48 48 11 1 ",
"  c #4D3A31",
". c #604E42",
"X c #7F6158",
"o c #85492C",
"O c #9B6627",
"+ c #A37D3E",
"@ c #8D796D",
"# c #BA924C",
"$ c #AA917B",
"% c #CBAD5F",
"& c #BDAD96",
/* pixels */
"+##+++++++++++++++++++++##++++O++++++++++++++#+X",
"#+#+%++O+++#++++++++#+##O#%+##%+++#+++#+%%%++##@",
"#++%%oOOOO%##+#++++##O#%OO+++%%#+##O+##++%##++#.",
"++##%++oOO%%+#%+%++#++O%O+#%++O%#+%%+#+++O##+++X",
"++##++%%%O%Oo%O%##+%##++++##%OOO%oO%+++%%#+++++@",
"+++++##%+OOo   %++O%%+###%+o%o    oOO++O##+++%+X",
"++%++##+%%% ...ooOO%O++#%%O .X.X.  %%%++O%#++#%.",
"++#%+++##% .X. .oOooOOOOO%O  .X.XX  %##+%#+##O#X",
"##O#++++++.X. .Xooo  .. .X.. &$@.X. +++++++O#++@",
"O#++#++#%+XX..X@  .X $@.X@X..$X$&.XX+%#+#++++++@",
"+++###+##% X &$X..X..@.X.&$.XXXX$@@ %##+##++#+OX",
"++++%%+ .%XXX$@..XXXX.$&X$@ .X.XX@XX%X +%%O#%O+.",
"++++O% .$X@@X....X@@@X@$@XXXXX .@  .XXX %OoOO%+X",
"+++OO .@@@@@@XXXXXX@@XXXX$$@XXXXX .X.@XX oOO+#%X",
"++O#O.XX&$@X@$@@XXXXX..X@$@@@XX@XXX. $@XX%#+++#@",
"++##X#OX$@@X@X@@@XX...XXX@@X@X@@@XX.  .O+O%#+++@",
"++++++O  .X@@@@XXX@XX....X.X@@@@@X@X.. .O##++++@",
"#++#%+oo .@XX@X@X@@@@@@X.X.@X@XX@@@@X%%%++++##OX",
"#+#%%%o .@X.XXX.XXX@@@@$X..XXXX@X@@@X.%##++++##X",
"++++O%  ..X..XXXX@@X@@@$@X..X@@XX@@X@+++++++O#+X",
"++#OO .. ... XX@@@XXX.X.X@X .XXXXXX@O%%%#+%%#++X",
"+##% .@.X .  .XX@XXXXX..XX....XX. .OoO%#+++##++X",
"++%%%.X X..XX@X..X.......@XXXXXXXX@@X O+O++O%#+X",
"+++O  .X.XX@@XXXXXX.  ..XX@$XXXX@@@&$XoO+#+%#O+X",
"++Oo . XXXX@@@X@X@.X..XXX@@@@@@@$@@&&@ o%##++++@",
"Oo%%% .XX@X@X@@@XXXX...X@@@@X@@@XX@@@X %%%+OO++@",
"+##%O .@&$XXX@XXX.XXX@..XX@X@@XX  XX$$X%+OOO+++X",
"+##+O.@$XXX...X..X@@$&X......XX... X$@.OOO%%%++.",
"+++++O$&...  XXXXX$&@$@@XX.  .X.XX.@@.  oOO%##+.",
"++O%%%.XXX...XXXX@@$@@$XX.X..XXXXXXX@&$ %%%+#++X",
"++##%o ..XXXXX$@$@X@@$&X...XXX@@@@X.X$@. %##+++@",
"+++#++o X@XX@X@@X@X@@XXX...XX@@@@XX .X.o++#+##+@",
"##+##+# .. .X@@@.XX..XX..XXXXXX@@@X.   #+##+O##@",
"#O+++##% X@$X@XX@@X$@XX.XXX@X@XX@X. X.%##++++O+X",
"O++##+%%%.$& X.@@@@@%%%X@@@@@X..X.$@.%%%+##+##+@",
"##+#%%oo.X  .XXX@@@X.%%%.X@@@@X.X.&$X oo%%#OO++X",
"+OOOOo  .. .X@$X@%%%#+%#+%%@XXX&$X..X@  oOO%+++X",
"++++OOo%%%.X.X@XX.%##+##%#O++%%$@@X %%%oOO%#oO+X",
"+%%%+#%#%  .X.+%+O+##++##Oo+%#.%.X.  %#%#+##+oOX",
"##%++##%+%%++%##%+O+++++++++#++#%++%%+%##+++%+OX",
"##O++++%Oo#%+#%+#++++++++++%+++##+%#oO%+++++%%+X",
"++#%%+++oo##++#++++++++%++%#++++++##+O++%%%O##+.",
"++##O+#%%++++++++%%%+O%#++#O##+++++++++++%##+#+X",
"+#%O++##%%++++++++%##+#O##++#O++++##+++++O#++++.",
"#+#%+#%O++++%+++++O#++++#O++++#+##O#%+++++O+#++.",
"#++++##%++++#%++###+++#++++++##O#%OO++++%%#+##+X",
"+##+++O%++##O#++O##+##+++++++#++O%O++++++##++#+@",
"+#++++++++O#+++++O++#+#+++++++++++++++++++O++++@"
};
