/* XPM */
static char *_5c1abb0a98b4c758ce57ccebad7897b[] = {
/* columns rows colors chars-per-pixel */
"64 64 235 2 ",
"   c #1C3D33",
".  c #2A242A",
"X  c #27282E",
"o  c #262D2D",
"O  c #362B2F",
"+  c #26352D",
"@  c #233B2E",
"#  c #37352E",
"$  c #2A2B34",
"%  c #2A2638",
"&  c #2D2B3C",
"*  c #322C35",
"=  c #263633",
"-  c #2B3135",
";  c #233F32",
":  c #2A333A",
">  c #283939",
",  c #313531",
"<  c #333C31",
"1  c #3A3C31",
"2  c #363939",
"3  c #443A2F",
"4  c #1D4931",
"5  c #1C5333",
"6  c #1C5D34",
"7  c #24462E",
"8  c #36452E",
"9  c #28552E",
"0  c #35542F",
"q  c #234531",
"w  c #214C31",
"e  c #2A4D32",
"r  c #274638",
"t  c #254D3B",
"y  c #364332",
"u  c #3B4433",
"i  c #3B4A37",
"p  c #245531",
"a  c #225B32",
"s  c #2A5739",
"d  c #385335",
"f  c #1C6334",
"g  c #1D6D36",
"h  c #1C7636",
"j  c #2D672E",
"k  c #2F772E",
"l  c #236333",
"z  c #2A6532",
"x  c #226C34",
"c  c #2C6D32",
"v  c #2A683A",
"b  c #376A34",
"n  c #227534",
"m  c #2C7232",
"M  c #237B34",
"N  c #2A7A32",
"B  c #29763A",
"V  c #377536",
"C  c #387633",
"Z  c #4F472E",
"A  c #434532",
"S  c #474B34",
"D  c #544932",
"F  c #435432",
"G  c #495934",
"H  c #525633",
"J  c #595C36",
"K  c #695835",
"L  c #6C5C34",
"P  c #4A6C2F",
"I  c #51662F",
"U  c #526D2F",
"Y  c #4A732F",
"T  c #55722E",
"R  c #5A762F",
"E  c #547E2F",
"W  c #5D7A2D",
"Q  c #4E6632",
"!  c #446830",
"~  c #4E6931",
"^  c #526430",
"/  c #536D32",
"(  c #586739",
")  c #4B7832",
"_  c #567131",
"`  c #5A7532",
"'  c #547A32",
"]  c #5E7A31",
"[  c #617E2F",
"{  c #73653B",
"}  c #627D31",
"|  c #2E2643",
" . c #2C2844",
".. c #312A44",
"X. c #372B46",
"o. c #322A4C",
"O. c #2B3643",
"+. c #2D3B49",
"@. c #353846",
"#. c #342D52",
"$. c #362E5B",
"%. c #353359",
"&. c #362E61",
"*. c #3C346C",
"=. c #453B45",
"-. c #2C4645",
";. c #3C4445",
":. c #295448",
">. c #376146",
",. c #4E5248",
"<. c #7D5B49",
"1. c #6F6D4D",
"2. c #777A43",
"3. c #655A67",
"4. c #85713F",
"5. c #887348",
"6. c #2F832F",
"7. c #368F2D",
"8. c #38932D",
"9. c #36992F",
"0. c #258334",
"q. c #2A8333",
"w. c #278835",
"e. c #2B8A32",
"r. c #368436",
"t. c #3A8634",
"y. c #348D33",
"u. c #3B8B32",
"i. c #279034",
"p. c #2C9433",
"a. c #2E9932",
"s. c #349533",
"d. c #3B9432",
"f. c #339B31",
"g. c #3C9A33",
"h. c #3CA12E",
"j. c #3CAD2E",
"k. c #3FB32E",
"l. c #2FA134",
"z. c #35A631",
"x. c #3EA332",
"c. c #3BAA32",
"v. c #51962E",
"b. c #478834",
"n. c #538532",
"m. c #439433",
"M. c #4D9434",
"N. c #439B33",
"B. c #4C9C33",
"V. c #539C33",
"C. c #599833",
"Z. c #64822D",
"A. c #68862F",
"S. c #69892B",
"D. c #658231",
"F. c #6B8632",
"G. c #769132",
"H. c #44AC2F",
"J. c #56AD2D",
"K. c #47B32D",
"L. c #56B82E",
"P. c #42A333",
"I. c #4DA232",
"U. c #44AB33",
"Y. c #4BAA33",
"T. c #57A632",
"R. c #52AD33",
"E. c #5BAD33",
"W. c #43B130",
"Q. c #4CB332",
"!. c #4FB931",
"~. c #53B332",
"^. c #5BB433",
"/. c #55BA31",
"(. c #59BC31",
"). c #64A72F",
"_. c #64BC2E",
"`. c #63A733",
"'. c #62B433",
"]. c #62BA34",
"[. c #6BBA33",
"{. c #52C22B",
"}. c #5CC52D",
"|. c #5ED029",
" X c #5DC230",
".X c #62C52D",
"XX c #65CC2D",
"oX c #6DCD2E",
"OX c #78CF2E",
"+X c #6FD927",
"@X c #66D428",
"#X c #6DD22D",
"$X c #72DE27",
"%X c #73D52C",
"&X c #79D52E",
"*X c #76D92B",
"=X c #7DDB2D",
"-X c #64C431",
";X c #6AC433",
":X c #6CCC31",
">X c #73C533",
",X c #72CC31",
"<X c #79CD33",
"1X c #77D230",
"2X c #7DD431",
"3X c #7EE228",
"4X c #60854A",
"5X c #A3A12B",
"6X c #87D62D",
"7X c #86DE2D",
"8X c #91DB2D",
"9X c #81CB34",
"0X c #82D233",
"qX c #8AD435",
"wX c #82D930",
"eX c #8CDB32",
"rX c #95DE33",
"tX c #9BDB32",
"yX c #AECB37",
"uX c #84E22A",
"iX c #8CE62B",
"pX c #8AE828",
"aX c #97E42E",
"sX c #93E92B",
"dX c #98EC2B",
"fX c #8DE030",
"gX c #9AE431",
"hX c #A0EE2D",
"jX c #A1E633",
"kX c #A0E831",
"lX c #8C874A",
"zX c #A08C52",
"xX c #B49C59",
"cX c #5C6584",
"vX c #626999",
/* pixels */
"/ ~ ] R / ] W ` / ~ ] R / ] W ` / ~ ] R / ] W ` / ~ ] R / ] W ` / _ W [ ~ / ` ` / _ W [ ~ / ` ` / _ W [ ~ / ` ` / _ W [ ~ / ` ` ",
"/ R ] D.[ _ } [ _ R ] D.[ _ } [ _ R ] D.[ _ } [ _ R ] D.[ _ } [ Z./ } W ] T } [ D./ } W ] T } [ D./ } W ] T } [ D./ } W ] T } [ ",
"/ } ] / R S./ } / } ] / R S./ } / } ] / R S./ } / } ] / R S./ } R S._ ] / ` } _ ` S._ ] / ` } _ ` S._ ] / ` } _ ` S._ ] / ` } _ ",
"R / Q W W / / ] ` / Q W W / / ] ` / Q W W / / ] ` / Q U Y n.n.' T / / _ ] / / _ Z./ / _ ] / / _ Z./ / _ ] / / _ Z./ / _ ] / / _ ",
"/ [ W / _ _ R R / [ W / _ _ R R / [ W / _ _ R R / ' C.P.-XH.H.R.Y.<Xb.T / R Z./ / T ` W / R Z./ / T ` W / R Z./ / T ` W / R Z./ ",
"` / _ R Z._ _ Z.] / _ R Z._ _ Z.] / _ R Z._ _ Z.n.d.^.=X:XK..XXXrX].C i Z./ _ / Z.] / ] Z./ _ / Z.] / ] Z./ _ / Z.] / ] Z./ _ / ",
"R W / ` ` D./ ` ` W / ` ` D./ ` ` W / ` ` D./ ` m I.^.Y.<X=XuX}.s.8.z @./ ] ` ` ` } _ ] / ] ` ` ` } _ ] / ] ` ` ` } _ ] / ] ` ` ",
"W / _ R R / / W W / _ T ~ E n.Y ~ / _ R R / / U M y.V.U.!.XXrX%Xh V B a.Y / / / Z./ / ~ U ) n.) U / / U Z./ / / Z./ / U Z./ / / ",
"_ ` ] ` / Q D.` / ' C.P.-XH.H.R.(.>X) ` / Y C.P.@XkX1X2Xs.~.p.(.$XwXeX2X~.<XM.R / Q C.x.]./.f.;Xx.<XC.] _ _ ] ] / / ] ] _ / ] ] ",
"` _ } [ _ R ] D.E d.^.=X:XK..XXXeXE.v G ) d.^.=XsX7X:X0XiXI.,XuXpX7X&X;XgX].C d ` u.Y.%XeXH..X#X7X].C d D./ } W ] T } [ D./ } W ",
"W S./ } / } ] / m I.^.Y.<X=XuX}.s.7.e ;.m I.^.Y. XQ.,X(.gXE.Q.q.oXc.&X-Xs.8.z +.b V.U.].;X*X*X*Xs.8.z +.` S._ ] / ` } _ ` S._ ] ",
"R / / ] ` / Q T M y.V.U.!.XXrX%XM b B w.x 0.M.g.E.oX,XN q.).a..XJ.&XoXm 6 r v 0.f g.r.^.Q.XXaX&Xw.V B a.Y / / _ ] / / _ Z./ / _ ",
"_ _ R R / ' C.P.@XkX1X2Xs.~.p.(.@XkX1X<X(.>XV.:Xs.~.p.(.@XkX1X2X:Xm.N.j c M b.x.%XwXeX2XY.Q.p.c.3XwXeX2X~.<Xb.T / R Z./ / T ` W ",
"[ _ _ Z.n.d.^.=XsX7X:X0XiXI.,XuXsXuX:X0XeXE.v v.iXI.,XuXsX7X:X0X#Xl N p.f.s.Y.%XdX7X&X;XdX'.].*XsX7X&X;XgX].C i Z./ _ / Z.] / ] ",
"` D./ ` m I.^.Y. XQ.,X(.gXE.Q.q. XQ.,X(.s.7.e >.gXE.Q.q. XQ.,X(.b.:.> 7 n V.U.].~.c.&X-XOX9XY.q.}.c.&X-Xs.8.z @./ ] ` ` ` } _ ] ",
"T / / W g 0.M.d.M.oX.Xl N ).a./.R.-XR.l x t x M 0.V.z.oX'._.~.a 9 s 0 a 6 g.r.^.P.1X&Xu.h ).s./.Q.&XoXm f t v 0.! / / / Z./ / U ",
"~ Q D.` x B.V.P.-XH.H.R.(.>XN.<X-Xm.y.j N N a r b.uXhX(.v.b v.P.(./.f.;X}.wXeX2XY.Q.p.c.3XwXeX2X:Xm.N.j c q.l :.2 / ] ] / / ] ] ",
"/ R ] D.z d.^.=X:XK..XXXeXE.v G. Xp w.i.W.9 & o.h 0.g.s.q.d.^.=X1XH..X#X3X7X&X;XdX'.].*XsX7X&X;XwXl N p.c.k $ $.u / } W ] T } [ ",
"/ } ] / l I.^.Y.<X=XuX}.s.7.e >.t.+.7 w 7 $ o.#.9 p.k.f.q.I.^.Y.qX*X*X*X(.c.&X-XOX9XY.q.}.c.&X-Xb.:.> 7 p > | o.;.A._ ] / ` } _ ",
"R / Q T M y.V.U.!.XXrX%XM b B a.e O.e 7 %.o.$.o.X + @ 4 M y.V.U.Q.XXaX&Xd.,X#XN f V.R./.g.7X Xk p s 0 a +.o.$.$.u / / _ ] / / _ ",
"/ ' C.P.@XkX1X2Xs.~.p.(.@XkX1X2X(.>Xr.q > $.#.@.- i n.P.@XkX1X2Xg.Q.p.c.;X/.f.;Xx.<XN.x.3X>X`.x.]./.f.;Xx.<Xb. .- T ` W / R Z./ ",
") d.^.=XsX7X:X0XiXI.,XuXsX7X:X0XeXE.v $  ...@.u 0 d.^.=XsX7X:X0XpX'.].*XwXH..X#X7X].C b 6Xd.Y.%XeXH..X#X7X].C % < ] / ] Z./ _ / ",
"n I.^.Y. XQ.,X(.gXE.Q.q. XQ.,X(.s.7.e %.#.;.y < l I.^.Y. XQ.,X(.8X9XY.q.<X*X*X*Xs.8.z +.m.V.U.].;X*X*X*Xs.8.z > 2 ] _ ] / ] ` ` ",
"x 0.M.g.E.oX,XN q.).a./.'.%X_.a x b q.0.: < , y g 0.M.g.E.oX,XN h ).s.~.c.%X1X=Xp.V B e.f g.r.^.Q.XXaX&Xw.V B a.d / / U Z./ / / ",
"n U.7X:Xs.~.p.(.@XkX1X<X-XN.C.P.-XH.H.R.(.>Xb < x U.7X:Xs.~.p.(.$XwXeX2X#XwXeX2X$X>X`.x.%XwXeX2XY.Q.p.c.3XwXeX2X~.<XC.] _ / ] ] ",
"9 q.}.uXiXI.,X7XsX7X:X0X~.d.^.=X:XK..XXXeXE.v , p q.}.uXiXI.,X7XpX7X&X;XdX7X&X;X8Xd.Y.%XdX7X&X;XdX'.].*XsX7X&X;XgX].C d D./ } W ",
"5 _.8.Q.gXE.Q.q. XQ.,X(.u.I.^.Y.<X=XuX}.s.7.e +.q _.8.Q.gXE.Q.q.oXc.&X-X(.c.&X-Xd.V.U.].~.c.&X-XOX9XY.q.}.c.&X-Xs.8.z +.` S._ ] ",
"$ p m.R.0.V.z.oX'.E.P.a M y.V.U.!.XXrX%XM b B a.- p m.R.g m.i.T.u.].{.N m.&XoXm 6 0.r.I.N.1X&Xy.h ).s./.L.&XoXm f t v 0.P / / _ ",
"@.& -.r b.uXhX(.M.b v.P.@XkX1X2Xs.~.p.(.@XkX1X2X(.>Xc r x B.V.P.(./.f.;Xx.<XM.j x u.&XXXI.Q.p.c.3XwXeX2X:Xm.N.j c q.l t 2 T ` W ",
"R G @.@ h 0.g.s.q.d.^.=XsX7X:X0XiXI.,XuXsX7X:X0XeXE.v o z d.^.=X1XH..X#X7X].C s a m /.&XuX'.].*XsX7X&X;XwXl N p.c.k $ $.u ] / ] ",
"` D.Q < 9 p.k.f.q.I.^.Y. XQ.,X(.gXE.Q.q. XQ.,X(.s.7.e +.l I.^.Y.qX*X*X*Xs.8.z +.w I.v.U.6X9XY.q.}.c.&X-Xb.:.> 7 p > | o.;.] _ ] ",
"T / / ( X + @ 4 g 0.M.g.E.oX,XN q.).a..X'.%X_.l a t x M M y.V.U.Q.XXaX&Xw.V B a.r ; y.^.y.m.H./.(.;X^.m t : 7 e +.o.$.$.i / / ~ ",
"/ Q A.` 1 $ o o x U.=X-Xy.-Xl./.|.jX#X1X-Xm.N 9 k N b.x.|.jX#X1Xd.-Xl.c.$X0X1X=XU.,Xq.5 Y +XdX%X'.m.@ 4 k l p.q q o.*...2 / _ W ",
"/ _ ` A.1.cX@.- a s.XX=XwXy.^.wXpXsX#XrX:Xz f.s.a.u.[..XpXsX#XrX7XI.N.:XdXuX7X0XgX;Xb.> p y.E.N.N w l p.z.j.4 + : | o.* i / A.] ",
"/ } } _ cXvXcX;.w J.u.~.hX:X.Xh.oX(.;X.Xb.-.9 a N ^.~.].oX(.;X.XdXeX.X9.#X/.2X XY.R.m ..w c.z.W.j.q q 4 p q : O.*.X.1 $ u Z./ [ ",
"U / / R T / F T - c ~.:Xe.b.a.R.E.^.-Xx 9 o.= @ M n C.Y.E.-X&Xx e.M.d.Y.Y.;X%Xt.g t v M = + p 4 7 x f.M @ : X.o.& # . X i / ` ` ",
"/ W T / ` Q H H , = ! t.N.j.W.d./.R.f p s f y.q l P.-X~.N. XU./.{.wX-X#X:XI.B.p 9 l m d.d.W.j.Y.q.-Xs.k @  .*.| < $ 2 $ / U _ T ",
"` ` ] R _ _ Q F 1.t.[..X%XH._.1XrX'.V m c.e.@ ; a s.XX=XwXy.^.wXpXuX7X0XfXm s.f.p.q.E.}.fXK.^.=XwX;Xb.- | X.* 2 $ ,.$ 2 R } / ] ",
"R / / ] / } 2.u j ^.~.].<X*X3X{.Y.~.s -.a = $ +.w J.u.~.hX:X.Xh.%X/.2X XB.:.; p N T.W.[.<X#X=X@XY.R.c ..% =.X $ X $ & _ } } _ D.",
"R ] _ T _ / S ^ M n C.Y.(.&XfX1Xg t s M + & o.o.- c ~.:Xe.b.a.R.I.;X%Xt.z O.& 7 6 e.b.'.~.1X=XeX0.t v M = $ - < y i / ~ ` / _ ~ ",
"` / / ] / _ E m.{.aX X:XN. XU./.{.aX X:Xm.M.q - & > C y.N.j.W.d.e.].c 5 v a C u.!.wX-X#XI. XU.W.}.wX-X#XN.T.b U ` / / R ` / ] ] ",
"R ` [ W E u.[..XpXsX#XrXwXy.^.wXpXsX#XrXrX'.V , y t.[..X%XH._.1XrX;Xb.l a.y.E.}.dXuX7X0XaXI.N.:XdXuX7X0XgX;Xb.F [ / A.] R U ` Z.",
"[ W _ D.V ^.~.].oX(.;X.XhX:X.Xh.oX(.;X.XY.~.s @.z ^.~.].<X*X3X{.R.R.m +.6 T.W.[.-X/.2X X7XeX.X9.#X/.2X XY.R.m @.] Z./ [ _ ] D._ ",
"R ] / ` M n C.Y.E.-X&Xx y.b.a.R.E.XX&Xx g t s M M n C.Y. X&XfX1Xg t v M f e.b.'.P.;X%Xt.0.M.d.Y.Y.;X%Xt.g t v M T / ` ` R / / _ ",
"/ _ U R l P.-X~.N. XU./.{.aX X:X-XI.t.p m x t.y.{.aX X:XN. XU./.{.wX-X#XN.~.r.u.d.W.j.Y.q.1Xs.#X XI.B.p j n l f & / _ T / ] T / ",
"[ / ` W a s.XX=XwXy.^.wXpXsX#XrX:Xz f.s.p.u.[..XpXsX#XrXwXy.^.wXpXuX7X0XtXm.E.}.fXK.^.=X0X;Xb.n.fXm s.f.a.6.> &.& ] / ] Z./ } _ ",
"} D./ } w J.u.~.hX:X.Xh.oX(.;X.Xb.-.9 a N ^.~.].oX(.;X.XhX:X.Xh.%X/.2X Xy.T.W.[.<X#X=X@XY.R.m ;.B.:.; p k q & o.@.} _ D./ / ` ` ",
"/ / _ _ - c ~.:Xe.b.a.R.E.^.-Xx 9 o.= 7 M n C.Y.E.-X&Xx y.b.a.R.I.;X%Xt.f e.b.'.~.1X=XeX0.t v M z O.& 7 O.#. .$.$ / _ ~ R ` ` / ",
"/ / [ ] 2 - t 5 v.3XuXXX-Xb 5 p s f y.q l P.-X~.N. XU./.{.aX X:X:XI.B.p j n l f Y #XpXXX>Xu.4 5 v a e.q r o.*...y Q ] ] ] / / R ",
"/ _ ` A./ @.& = x u.'.d.m p n f.c.e.@ ; a s.XX=XwXy.^.wXpXsX#XrX=Xm s.f.a.6.> &.w y.E.N.N w l p.z.j.4 + : | o.u i U ` Z.[ / A.] ",
"/ } } _ ] W G o c z.k.c.s.q q w a = $ +.w J.u.~.hX:X.Xh.oX(.;X.XM.:.; p k q & o.t c.z.W.j.q q 4 p q : O.*.=.< A i ] D._ ` Z./ [ ",
"U / / R R ] / ,.o ; 9 5 @ q.p.x + & o.o.- c ~.:Xe.b.a.R.E.-X&Xx z O.& 7 O.o. .$.o + p 4 7 x f.M @ : X.o.& < < S i Q / _ [ / ` ` ",
"/ W T / ` / Z.] , $ o o q.z.s.c X #.&.& & - t 5 v.3XuXXX-Xb 5 p v a y.q r o.*.X.. $ $ o a j.s.k @  .*. .< < < u Q ] T / ] U _ T ",
"` ` ] R _ ` ` A./ ,.& - ..+ - & | X.@.,.< @...= x u.'.d.m p n f.l.j.4 + : | o.$ X & X.- ..o o ..| X.2 i u D S ( Z./ } _ W ] / ] ",
"R / / ] / } } _ ] W / ( # . . . =.8 3.3.2 @.=., c z.k.c.s.q q w p q : O.*.@.O * X , < 2 1 . . . - d e q < K F 2./ / ` ` } } _ D.",
"R ] _ T _ / / R R ] / ` { L Z 3 < < S F < ,.Z 1.o ; 9 5 @ q.p.x + : X.o.& , , $ 8 $ < < { K 3 D 1 , = i < F 1.<.2.` ` / R / _ ~ ",
"/ / [ ] / W T / ` Q H H lXxXK Z A y F / ( lX1 4.1 $ o o N z.s.c .  .*.| 8   y y < < , , 1.xXK L 1 A y U ` / ] ] ] / / R ` / ] ] ",
"/ _ ` A.W ` ] R _ _ Q F zXxXK Z 1 A T W ^ F 1 D O * & - ..+ - & | X.& - A e d 0 y < < 2 2.xX{ D 3 A I ] R U ` Z.[ / A.] R U ` Z.",
"/ } } _ ` / / ] / } 2.u 5.5.K A 1 J ` D./ } / Z # 3 J A # . . . 2 - ,.& = d e q < y ,.H L lXK D 1 H / [ _ ] D._ ` Z./ [ _ ] D._ ",
"U / / R _ ] _ T _ / S ^ J ^ ^ ^ U G / ` _ / ~ G ^ J G Q { L Z 3 8 - 2 < i i y F y i H G ( ^ ^ G W F / ` R / / _ [ / ` ` R / / _ ",
"` / / ] ` / / ] / W T / ` / / ] ` _ U R ` / / D.` Q H H lXxXK Z u A y U 2.F.yX/ ] / / R / ] T / ] U _ T / ] T / ] U _ T / ] T / ",
"R ` [ W W ` [ W W ` ] R W ` [ W W / ` W G.5XG.G._ _ Q F zXxXK Z 1 A I ] G./ lXF.Z./ A.] Z./ } _ W ] / ] Z./ } _ W ] / ] Z./ } _ ",
"[ W _ D.] W _ D.` / / ] ] W _ D.} D./ } F.5XF.2./ } 2.u 5.5.K A 1 H / [ ` 5X` G.} Z./ [ ` / ` ` } } _ D./ / ` ` } } _ D./ / ` ` ",
"R ] / ` R ] / ` _ ] _ T R ] / ` _ / _ _ U ` 1.5./ ^ S ^ ( ^ ^ ^ R F / ` R ` ` 4X[ / ` ` R ` ` / R / _ ~ R ` ` / R / _ ~ R ` ` / "
};
